<?xml version="1.0" encoding="UTF-8"?>
<svg width="24px" height="30px" viewBox="0 0 24 30" version="1.1" xmlns="http://www.w3.org/2000/svg" xmlns:xlink="http://www.w3.org/1999/xlink">
    <!-- Generator: Sketch 52.5 (67469) - http://www.bohemiancoding.com/sketch -->
    <title>ic_add</title>
    <desc>Created with Sketch.</desc>
    <defs>
        <rect id="path-1" x="0" y="0" width="30" height="30"></rect>
    </defs>
    <g id="Page-1" stroke="none" stroke-width="1" fill="none" fill-rule="evenodd">
        <g id="1-首页-1" transform="translate(-621.000000, -1270.000000)">
            <g id="Group-11" transform="translate(0.000000, 1100.000000)">
                <g id="Group-8" transform="translate(28.000000, 130.000000)">
                    <g id="Group-7" transform="translate(590.000000, 40.000000)">
                        <g id="ic_add">
                            <mask id="mask-2" fill="white">
                                <use xlink:href="#path-1"></use>
                            </mask>
                            <use id="Mask" fill="#D8D8D8" opacity="0" xlink:href="#path-1"></use>
                            <path d="M15,30 C7,22.418278 3,16.418278 3,12 C3,5.372583 8.372583,4.79616347e-14 15,4.79616347e-14 C21.627417,4.79616347e-14 27,5.372583 27,12 C27,16.418278 23,22.418278 15,30 Z M15,16 C17.7614237,16 20,13.7614237 20,11 C20,8.23857625 17.7614237,6 15,6 C12.2385763,6 10,8.23857625 10,11 C10,13.7614237 12.2385763,16 15,16 Z" id="Combined-Shape" fill="#CCCCCC" mask="url(#mask-2)"></path>
                        </g>
                    </g>
                </g>
            </g>
        </g>
    </g>
</svg>