<?xml version="1.0" encoding="UTF-8"?>
<svg width="32px" height="31px" viewBox="0 0 32 31" version="1.1" xmlns="http://www.w3.org/2000/svg" xmlns:xlink="http://www.w3.org/1999/xlink">
    <!-- Generator: Sketch 52.5 (67469) - http://www.bohemiancoding.com/sketch -->
    <title>ic_1_shop</title>
    <desc>Created with Sketch.</desc>
    <defs>
        <rect id="path-1" x="0" y="0" width="32" height="32"></rect>
    </defs>
    <g id="Page-1" stroke="none" stroke-width="1" fill="none" fill-rule="evenodd">
        <g id="1-首页-1" transform="translate(-28.000000, -1128.000000)">
            <g id="Group-11" transform="translate(0.000000, 1100.000000)">
                <g id="ic_1_shop" transform="translate(28.000000, 27.000000)">
                    <mask id="mask-2" fill="white">
                        <use xlink:href="#path-1"></use>
                    </mask>
                    <use id="Mask" fill="#D8D8D8" fill-rule="nonzero" opacity="0" xlink:href="#path-1"></use>
                    <path d="M10.5,28.5 L10.5,22 C10.5,18.9624339 12.9624339,16.5 16,16.5 C19.0375661,16.5 21.5,18.9624339 21.5,22 L21.5,28.5 L25.5,28.5 L25.5,17 C25.5,16.1715729 26.1715729,15.5 27,15.5 C27.8284271,15.5 28.5,16.1715729 28.5,17 L28.5,29 C28.5,30.3807119 27.3807119,31.5 26,31.5 L6,31.5 C4.61928813,31.5 3.5,30.3807119 3.5,29 L3.5,17 C3.5,16.1715729 4.17157288,15.5 5,15.5 C5.82842712,15.5 6.5,16.1715729 6.5,17 L6.5,28.5 L10.5,28.5 Z M13.5,28.5 L18.5,28.5 L18.5,22 C18.5,20.6192881 17.3807119,19.5 16,19.5 C14.6192881,19.5 13.5,20.6192881 13.5,22 L13.5,28.5 Z M16,4.36563171 L2.90054895,14.1995881 C2.23803475,14.6969475 1.29777137,14.5630632 0.800411912,13.900549 C0.303052458,13.2380347 0.436936839,12.2977714 1.09945105,11.8004119 L15.099451,1.29039979 C15.6330079,0.88985057 16.3669921,0.88985057 16.900549,1.29039979 L30.900549,11.8004119 C31.5630632,12.2977714 31.6969475,13.2380347 31.1995881,13.900549 C30.7022286,14.5630632 29.7619653,14.6969475 29.099451,14.1995881 L16,4.36563171 Z" id="Combined-Shape" fill="#333333" fill-rule="nonzero" mask="url(#mask-2)"></path>
                </g>
            </g>
        </g>
    </g>
</svg>