<?xml version="1.0" encoding="UTF-8"?>
<svg width="30px" height="32px" viewBox="0 0 30 32" version="1.1" xmlns="http://www.w3.org/2000/svg" xmlns:xlink="http://www.w3.org/1999/xlink">
    <!-- Generator: Sketch 52.5 (67469) - http://www.bohemiancoding.com/sketch -->
    <title>ic_1_plan</title>
    <desc>Created with Sketch.</desc>
    <defs>
        <rect id="path-1" x="0" y="0" width="32" height="32"></rect>
    </defs>
    <g id="Page-1" stroke="none" stroke-width="1" fill="none" fill-rule="evenodd">
        <g id="1-首页-1" transform="translate(-29.000000, -310.000000)">
            <g id="Group-3" transform="translate(0.000000, 280.000000)">
                <g id="ic_1_plan" transform="translate(28.000000, 30.000000)">
                    <mask id="mask-2" fill="white">
                        <use xlink:href="#path-1"></use>
                    </mask>
                    <use id="Mask" fill="#D8D8D8" fill-rule="nonzero" opacity="0" xlink:href="#path-1"></use>
                    <path d="M24.3739825,3.5 L28,3.5 C29.3807119,3.5 30.5,4.61928813 30.5,6 L30.5,30 C30.5,31.3807119 29.3807119,32.5 28,32.5 L4,32.5 C2.61928813,32.5 1.5,31.3807119 1.5,30 L1.5,6 C1.5,4.61928813 2.61928813,3.5 4,3.5 L7.62601749,3.5 C8.07006028,1.77477279 9.63616057,0.5 11.5,0.5 L20.5,0.5 C22.3638394,0.5 23.9299397,1.77477279 24.3739825,3.5 Z M23.9648712,6.5 C23.2732524,7.69560274 21.9805647,8.5 20.5,8.5 L11.5,8.5 C10.0194353,8.5 8.72674762,7.69560274 8.03512878,6.5 L4.5,6.5 L4.5,29.5 L27.5,29.5 L27.5,6.5 L23.9648712,6.5 Z M11.5,3.5 C10.9477153,3.5 10.5,3.94771525 10.5,4.5 C10.5,5.05228475 10.9477153,5.5 11.5,5.5 L20.5,5.5 C21.0522847,5.5 21.5,5.05228475 21.5,4.5 C21.5,3.94771525 21.0522847,3.5 20.5,3.5 L11.5,3.5 Z M14.25,12 L21.75,12 C22.4403559,12 23,12.5596441 23,13.25 C23,13.9403559 22.4403559,14.5 21.75,14.5 L14.25,14.5 C13.5596441,14.5 13,13.9403559 13,13.25 C13,12.5596441 13.5596441,12 14.25,12 Z M14.25,17 L21.75,17 C22.4403559,17 23,17.5596441 23,18.25 C23,18.9403559 22.4403559,19.5 21.75,19.5 L14.25,19.5 C13.5596441,19.5 13,18.9403559 13,18.25 C13,17.5596441 13.5596441,17 14.25,17 Z M14.25,22 L21.75,22 C22.4403559,22 23,22.5596441 23,23.25 C23,23.9403559 22.4403559,24.5 21.75,24.5 L14.25,24.5 C13.5596441,24.5 13,23.9403559 13,23.25 C13,22.5596441 13.5596441,22 14.25,22 Z M10.25,14.5 C9.55964406,14.5 9,13.9403559 9,13.25 C9,12.5596441 9.55964406,12 10.25,12 C10.9403559,12 11.5,12.5596441 11.5,13.25 C11.5,13.9403559 10.9403559,14.5 10.25,14.5 Z M10.25,19.5 C9.55964406,19.5 9,18.9403559 9,18.25 C9,17.5596441 9.55964406,17 10.25,17 C10.9403559,17 11.5,17.5596441 11.5,18.25 C11.5,18.9403559 10.9403559,19.5 10.25,19.5 Z M10.25,24.5 C9.55964406,24.5 9,23.9403559 9,23.25 C9,22.5596441 9.55964406,22 10.25,22 C10.9403559,22 11.5,22.5596441 11.5,23.25 C11.5,23.9403559 10.9403559,24.5 10.25,24.5 Z" id="Combined-Shape" fill="#333333" fill-rule="nonzero" mask="url(#mask-2)"></path>
                </g>
            </g>
        </g>
    </g>
</svg>