<?xml version="1.0" encoding="UTF-8"?>
<svg width="20px" height="24px" viewBox="0 0 20 24" version="1.1" xmlns="http://www.w3.org/2000/svg" xmlns:xlink="http://www.w3.org/1999/xlink">
    <!-- Generator: Sketch 52.5 (67469) - http://www.bohemiancoding.com/sketch -->
    <title>ic_2_add</title>
    <desc>Created with Sketch.</desc>
    <defs>
        <rect id="path-1" x="0" y="0" width="24" height="24"></rect>
    </defs>
    <g id="Page-1" stroke="none" stroke-width="1" fill="none" fill-rule="evenodd">
        <g id="2-门店详情" transform="translate(-30.000000, -895.000000)">
            <g id="Group-7" transform="translate(0.000000, 528.000000)">
                <g id="ic_2_add" transform="translate(28.000000, 367.000000)">
                    <mask id="mask-2" fill="white">
                        <use xlink:href="#path-1"></use>
                    </mask>
                    <use id="Mask" fill="#EDEDED" opacity="0" xlink:href="#path-1"></use>
                    <path d="M12.654968,23.4386483 C12.2791123,23.7644181 11.7209603,23.7644183 11.3451044,23.4386488 L11.3450736,23.4386844 C5.11502453,18.0388497 2,13.5592882 2,10 C2,4.4771525 6.4771525,-5.68434189e-14 12,-5.68434189e-14 C17.5228475,-5.68434189e-14 22,4.4771525 22,10 C22,13.5592803 18.8849893,18.0388297 12.654968,23.4386483 Z M12,13 C14.209139,13 16,11.209139 16,9 C16,6.790861 14.209139,5 12,5 C9.790861,5 8,6.790861 8,9 C8,11.209139 9.790861,13 12,13 Z" id="Combined-Shape" fill="#666666" mask="url(#mask-2)"></path>
                </g>
            </g>
        </g>
    </g>
</svg>