<?xml version="1.0" encoding="UTF-8"?>
<svg width="24px" height="24px" viewBox="0 0 24 24" version="1.1" xmlns="http://www.w3.org/2000/svg" xmlns:xlink="http://www.w3.org/1999/xlink">
    <!-- Generator: Sketch 52.5 (67469) - http://www.bohemiancoding.com/sketch -->
    <title>ic_2_time</title>
    <desc>Created with Sketch.</desc>
    <defs>
        <rect id="path-1" x="0" y="0" width="24" height="24"></rect>
    </defs>
    <g id="Page-1" stroke="none" stroke-width="1" fill="none" fill-rule="evenodd">
        <g id="2-门店详情" transform="translate(-28.000000, -685.000000)">
            <g id="Group-7" transform="translate(0.000000, 528.000000)">
                <g id="ic_2_time" transform="translate(28.000000, 157.000000)">
                    <mask id="mask-2" fill="white">
                        <use xlink:href="#path-1"></use>
                    </mask>
                    <use id="Mask" fill="#EDEDED" opacity="0" xlink:href="#path-1"></use>
                    <path d="M12,24 C5.372583,24 0,18.627417 0,12 C0,5.372583 5.372583,0 12,0 C18.627417,0 24,5.372583 24,12 C24,18.627417 18.627417,24 12,24 Z M13,12.5624836 L13,6 C13,5.44771525 12.5522847,5 12,5 C11.4477153,5 11,5.44771525 11,6 L11,12.952408 C10.9996182,12.9684086 10.9996182,12.9844167 11.0000001,13.0004173 C11.0001395,13.3418855 11.1714284,13.6433389 11.4327398,13.8236505 L14.121034,16.5119448 C14.5115583,16.9024691 15.1447233,16.9024691 15.5352476,16.5119448 C15.9257719,16.1214205 15.9257719,15.4882555 15.5352476,15.0977312 L13,12.5624836 Z" id="Combined-Shape" fill="#666666" mask="url(#mask-2)"></path>
                </g>
            </g>
        </g>
    </g>
</svg>